<?xml version="1.0" encoding="utf-8"?>
<svg class="js-modal-close" version="1.1" xmlns="http://www.w3.org/2000/svg" x="0px" y="0px" viewBox="0 0 1000 1000">
  <path
    d="M683.4,360.4c-0.5-11.1-4.6-22.1-13.1-30.6c-8.5-8.5-19.5-12.6-30.6-13.1c-12.4-0.5-24.9,3.6-34.3,13.1L500,435L394.7,329.7c-9.5-9.5-22-13.6-34.3-13.1c-11.1,0.5-22.1,4.6-30.6,13.1c-8.5,8.5-12.6,19.5-13.1,30.6c-0.5,12.4,3.6,24.9,13.1,34.3L435,500L329.8,605.3c-9.5,9.5-13.6,22-13.1,34.3c0.5,11.1,4.6,22.1,13.1,30.6c8.5,8.5,19.5,12.6,30.6,13.1c12.4,0.5,24.9-3.6,34.3-13.1L500,565l105.3,105.3c9.5,9.5,22,13.6,34.3,13.1c11.1-0.5,22.1-4.6,30.6-13.1c8.5-8.5,12.6-19.5,13.1-30.6c0.5-12.4-3.6-24.9-13.1-34.3L565,500l105.3-105.3C679.7,385.2,683.9,372.8,683.4,360.4z M500,10C229.4,10,10,229.4,10,500c0,270.6,219.4,490,490,490c270.6,0,490-219.4,490-490C990,229.4,770.6,10,500,10z M500,898.1c-219.5,0-398.1-178.6-398.1-398.1c0-219.5,178.6-398.1,398.1-398.1c219.5,0,398.1,178.6,398.1,398.1C898.1,719.5,719.5,898.1,500,898.1z"/>
</svg>